<svg xmlns="http://www.w3.org/2000/svg" xmlns:xlink="http://www.w3.org/1999/xlink" viewBox="0 0 100 116"><defs><style>.cls-1{isolation:isolate;}.cls-2{fill:url(#linear-gradient);}.cls-3{fill:url(#linear-gradient-2);}.cls-4{fill:url(#linear-gradient-3);}.cls-5{fill:url(#linear-gradient-4);}.cls-6,.cls-7,.cls-8,.cls-9{mix-blend-mode:multiply;}.cls-6{fill:url(#linear-gradient-5);}.cls-7{fill:url(#linear-gradient-6);}.cls-8{fill:url(#linear-gradient-7);}.cls-9{fill:url(#linear-gradient-8);}</style><linearGradient id="linear-gradient" x1="50" y1="92.94" x2="50" y2="1.19" gradientUnits="userSpaceOnUse"><stop offset="0.18" stop-color="#9d9d9d"/><stop offset="0.25" stop-color="#b0b8b3"/><stop offset="0.34" stop-color="#c6ccc9"/><stop offset="0.43" stop-color="#d5dcd5"/><stop offset="0.52" stop-color="#ddefef"/><stop offset="0.6" stop-color="#d5dcd5"/><stop offset="0.69" stop-color="#c6ccc9"/><stop offset="0.77" stop-color="#aab4bc"/><stop offset="0.88" stop-color="#9d9d9d"/></linearGradient><linearGradient id="linear-gradient-2" x1="5.34" y1="47.06" x2="94.66" y2="47.06" xlink:href="#linear-gradient"/><linearGradient id="linear-gradient-3" x1="50" y1="5.66" x2="50" y2="91.55" xlink:href="#linear-gradient"/><linearGradient id="linear-gradient-4" x1="40.33" y1="104.14" x2="60.33" y2="104.14" xlink:href="#linear-gradient"/><linearGradient id="linear-gradient-5" x1="44.15" y1="109.31" x2="56.51" y2="109.31" gradientUnits="userSpaceOnUse"><stop offset="0" stop-color="#98959d"/><stop offset="0.31" stop-color="#aeb1a2"/><stop offset="0.53" stop-color="#dae4ff"/><stop offset="0.72" stop-color="#adb0a7"/><stop offset="0.89" stop-color="#98959d"/></linearGradient><linearGradient id="linear-gradient-6" x1="40.33" y1="104.33" x2="50.33" y2="104.33" xlink:href="#linear-gradient-5"/><linearGradient id="linear-gradient-7" x1="50.33" y1="99.93" x2="53.42" y2="99.93" xlink:href="#linear-gradient-5"/><linearGradient id="linear-gradient-8" x1="50.33" y1="104.33" x2="60.33" y2="104.33" xlink:href="#linear-gradient-5"/></defs><title>User</title><g class="cls-1"><g id="Layer_1" data-name="Layer 1"><path class="cls-2" d="M50,1.5A45.57,45.57,0,1,0,95.36,47.06,45.46,45.46,0,0,0,50,1.5Zm0,86.89A41.33,41.33,0,1,1,91.13,47.06,41.28,41.28,0,0,1,50,88.39Z"/><path class="cls-3" d="M50,2.2A44.87,44.87,0,1,0,94.66,47.06,44.81,44.81,0,0,0,50,2.2Zm0,86.19A41.33,41.33,0,1,1,91.13,47.06,41.28,41.28,0,0,1,50,88.39Z"/><path class="cls-4" d="M50,5.09a42,42,0,1,0,41.79,42A41.93,41.93,0,0,0,50,5.09Zm0,79.47a37.5,37.5,0,1,1,37.33-37.5A37.46,37.46,0,0,1,50,84.56Z"/><polygon class="cls-5" points="50.33 94.63 53.42 100.89 60.33 101.89 55.33 106.77 56.51 113.65 50.33 110.4 44.15 113.65 45.33 106.77 40.33 101.89 47.24 100.89 50.33 94.63"/><polygon class="cls-6" points="44.15 113.65 50.33 104.97 56.51 113.65 50.33 110.4 44.15 113.65"/><polygon class="cls-7" points="50.33 104.97 45.33 106.77 40.33 101.89 50.33 104.97"/><polygon class="cls-8" points="50.33 94.9 50.33 104.97 53.42 100.89 50.33 94.9"/><polygon class="cls-9" points="60.33 101.89 50.33 104.97 55.33 106.77 60.33 101.89"/></g></g></svg>