<?xml version="1.0" encoding="UTF-8"?>
<svg width="28px" height="21px" viewBox="0 0 28 21" version="1.1" xmlns="http://www.w3.org/2000/svg" xmlns:xlink="http://www.w3.org/1999/xlink">
    <!-- Generator: Sketch 53.1 (72631) - https://sketchapp.com -->
    <title>1st</title>
    <desc>Created with Sketch.</desc>
    <defs>
        <polygon id="path-1" points="0 20.3414 27.516 20.3414 27.516 0.0004 0 0.0004"></polygon>
    </defs>
    <g id="Page-1" stroke="none" stroke-width="1" fill="none" fill-rule="evenodd">
        <g id="Contest-List_v2" transform="translate(-559.000000, -634.000000)">
            <g id="01" transform="translate(390.000000, 510.000000)">
                <g id="avt-" transform="translate(119.000000, 96.000000)">
                    <g id="01" transform="translate(0.000000, 1.000000)">
                        <g id="1st" transform="translate(50.000000, 27.000000)">
                            <path d="M24.233,17.2539 C23.468,18.2459 21.014,18.1339 20.662,16.7499 C21.94,16.0719 23.339,16.8339 24.233,17.2539" id="Fill-1" fill="#F8D273"></path>
                            <path d="M25.9786,15.1289 C25.5266,16.2969 23.1426,16.8859 22.4116,15.6589 C23.4446,14.6459 25.0016,14.9789 25.9786,15.1289" id="Fill-3" fill="#F8D273"></path>
                            <path d="M26.6935,12.3808 C26.7815,13.6298 24.8745,15.1778 23.6915,14.3798 C24.1945,13.0228 25.7455,12.6608 26.6935,12.3808" id="Fill-5" fill="#F8D273"></path>
                            <path d="M27.4664,9.6543 C27.8034,10.8003 26.3434,12.6323 25.0784,12.1303 C25.2694,10.7623 26.6414,10.1093 27.4664,9.6543" id="Fill-7" fill="#F8D273"></path>
                            <path d="M27.1007,7.0585 C27.7357,8.0255 26.8977,10.1345 25.5827,10.0255 C25.3757,8.7045 26.4637,7.7115 27.1007,7.0585" id="Fill-9" fill="#F8D273"></path>
                            <path d="M26.1236,4.6318 C26.9426,5.3498 26.7126,7.4738 25.4926,7.7048 C24.9726,6.5588 25.7096,5.3848 26.1236,4.6318" id="Fill-11" fill="#F8D273"></path>
                            <path d="M21.9356,6.0156 C21.9086,7.1046 23.6266,8.3746 24.6236,7.6336 C24.1326,6.4746 22.7696,6.2216 21.9356,6.0156" id="Fill-13" fill="#F8D273"></path>
                            <path d="M22.2433,7.6728 C21.9903,8.7328 23.4073,10.3318 24.5363,9.8148 C24.2963,8.5778 23.0163,8.0488 22.2433,7.6728" id="Fill-15" fill="#F8D273"></path>
                            <path d="M21.9674,9.1367 C21.5414,10.1397 22.6724,11.9517 23.8714,11.6297 C23.8414,10.3717 22.6674,9.6357 21.9674,9.1367" id="Fill-17" fill="#F8D273"></path>
                            <path d="M21.6183,10.7207 C21.0063,11.6217 21.7633,13.6197 23.0023,13.5367 C23.2173,12.2957 22.2083,11.3467 21.6183,10.7207" id="Fill-19" fill="#F8D273"></path>
                            <path d="M20.7042,11.6328 C19.8622,12.5048 20.3142,14.8378 21.6872,14.9808 C22.1582,13.6618 21.2322,12.4298 20.7042,11.6328" id="Fill-21" fill="#F8D273"></path>
                            <path d="M19.5675,12.5136 C18.6395,13.2916 18.8435,15.6596 20.1945,15.9466 C20.8005,14.6836 20.0085,13.3616 19.5675,12.5136" id="Fill-23" fill="#F8D273"></path>
                            <path d="M22.9478,3.8378 C24.0888,3.7508 25.5138,5.4858 24.7898,6.5718 C23.5468,6.1188 23.2088,4.7018 22.9478,3.8378" id="Fill-25" fill="#F8D273"></path>
                            <path d="M17.1324,17.3496 C23.0824,16.5986 25.7234,12.0066 25.1844,7.7446 L24.9194,7.7776 C25.4464,11.9426 22.8034,16.1896 17.0774,16.9156 L17.1324,17.3496 Z" id="Fill-27" fill="#F8D273"></path>
                            <path d="M3.2828,17.2539 C4.0478,18.2459 6.5018,18.1339 6.8538,16.7499 C5.5758,16.0719 4.1768,16.8339 3.2828,17.2539" id="Fill-29" fill="#F8D273"></path>
                            <path d="M1.5367,15.1289 C1.9887,16.2969 4.3737,16.8859 5.1047,15.6589 C4.0707,14.6459 2.5137,14.9789 1.5367,15.1289" id="Fill-31" fill="#F8D273"></path>
                            <path d="M0.8224,12.3808 C0.7344,13.6298 2.6414,15.1778 3.8244,14.3798 C3.3214,13.0228 1.7704,12.6608 0.8224,12.3808" id="Fill-33" fill="#F8D273"></path>
                            <path d="M0.0494,9.6543 C-0.2876,10.8003 1.1724,12.6323 2.4374,12.1303 C2.2464,10.7623 0.8744,10.1093 0.0494,9.6543" id="Fill-35" fill="#F8D273"></path>
                            <path d="M0.4151,7.0585 C-0.2199,8.0255 0.6181,10.1345 1.9331,10.0255 C2.1401,8.7045 1.0521,7.7115 0.4151,7.0585" id="Fill-37" fill="#F8D273"></path>
                            <path d="M1.3922,4.6318 C0.5722,5.3498 0.8022,7.4738 2.0222,7.7048 C2.5422,6.5588 1.8062,5.3848 1.3922,4.6318" id="Fill-39" fill="#F8D273"></path>
                            <path d="M5.5802,6.0156 C5.6072,7.1046 3.8892,8.3746 2.8922,7.6336 C3.3832,6.4746 4.7462,6.2216 5.5802,6.0156" id="Fill-41" fill="#F8D273"></path>
                            <path d="M5.2726,7.6728 C5.5256,8.7328 4.1076,10.3318 2.9796,9.8148 C3.2186,8.5778 4.4996,8.0488 5.2726,7.6728" id="Fill-43" fill="#F8D273"></path>
                            <path d="M5.5484,9.1367 C5.9744,10.1397 4.8434,11.9517 3.6444,11.6297 C3.6744,10.3717 4.8484,9.6357 5.5484,9.1367" id="Fill-45" fill="#F8D273"></path>
                            <path d="M5.8971,10.7207 C6.5091,11.6217 5.7521,13.6197 4.5131,13.5367 C4.2981,12.2957 5.3071,11.3467 5.8971,10.7207" id="Fill-47" fill="#F8D273"></path>
                            <path d="M6.8116,11.6328 C7.6526,12.5048 7.2016,14.8378 5.8276,14.9808 C5.3576,13.6618 6.2836,12.4298 6.8116,11.6328" id="Fill-49" fill="#F8D273"></path>
                            <path d="M7.9483,12.5136 C8.8763,13.2916 8.6723,15.6596 7.3213,15.9466 C6.7153,14.6836 7.5063,13.3616 7.9483,12.5136" id="Fill-51" fill="#F8D273"></path>
                            <path d="M4.568,3.8378 C3.426,3.7508 2.002,5.4858 2.726,6.5718 C3.968,6.1188 4.307,4.7018 4.568,3.8378" id="Fill-53" fill="#F8D273"></path>
                            <path d="M10.3834,17.3496 C4.4334,16.5986 1.7914,12.0066 2.3314,7.7446 L2.5964,7.7776 C2.0694,11.9426 4.7114,16.1896 10.4384,16.9156 L10.3834,17.3496 Z" id="Fill-55" fill="#F8D273"></path>
                            <mask id="mask-2" fill="white">
                                <use xlink:href="#path-1"></use>
                            </mask>
                            <g id="Clip-58"></g>
                            <polygon id="Fill-57" fill="#EF5768" mask="url(#mask-2)" points="9.186 18.7264 18.364 18.7264 18.364 15.9764 9.186 15.9764"></polygon>
                            <polygon id="Fill-59" fill="#DF465C" mask="url(#mask-2)" points="19.484 20.3418 8.066 20.3418 8.394 18.7268 19.156 18.7268"></polygon>
                            <polygon id="Fill-60" fill="#C82D44" mask="url(#mask-2)" points="9.186 18.7264 18.364 18.7264 18.364 17.8824 9.186 17.8824"></polygon>
                            <polygon id="Fill-61" fill="#FDC10E" mask="url(#mask-2)" points="18.5977 15.5205 18.5977 18.7265 9.0537 18.7265 9.0537 15.5205 11.6267 15.5205 11.6267 3.2065 8.8797 3.2065 8.8797 -0.0005 16.1867 -0.0005 16.1867 15.5205"></polygon>
                        </g>
                    </g>
                </g>
            </g>
        </g>
    </g>
</svg>