<?xml version="1.0" encoding="UTF-8"?>
<svg width="28px" height="21px" viewBox="0 0 28 21" version="1.1" xmlns="http://www.w3.org/2000/svg" xmlns:xlink="http://www.w3.org/1999/xlink">
    <!-- Generator: Sketch 53.1 (72631) - https://sketchapp.com -->
    <title>3rd</title>
    <desc>Created with Sketch.</desc>
    <defs>
        <polygon id="path-1" points="0 20.6464 27.445 20.6464 27.445 0.0004 0 0.0004"></polygon>
    </defs>
    <g id="Page-1" stroke="none" stroke-width="1" fill="none" fill-rule="evenodd">
        <g id="Contest-List_v2" transform="translate(-921.000000, -634.000000)">
            <g id="01" transform="translate(390.000000, 510.000000)">
                <g id="avt-" transform="translate(119.000000, 96.000000)">
                    <g id="03" transform="translate(364.000000, 0.000000)">
                        <g id="3rd" transform="translate(48.000000, 28.000000)">
                            <path d="M24.1731,17.5762 C23.4111,18.5642 20.9651,18.4522 20.6131,17.0732 C21.8881,16.3972 23.2821,17.1572 24.1731,17.5762" id="Fill-1" fill="#F7DBC6"></path>
                            <path d="M25.9133,15.457 C25.4623,16.621 23.0853,17.208 22.3573,15.986 C23.3873,14.976 24.9393,15.309 25.9133,15.457" id="Fill-3" fill="#F7DBC6"></path>
                            <path d="M26.6253,12.7178 C26.7133,13.9628 24.8133,15.5068 23.6333,14.7108 C24.1343,13.3588 25.6813,12.9978 26.6253,12.7178" id="Fill-5" fill="#F7DBC6"></path>
                            <path d="M27.3958,10.001 C27.7318,11.143 26.2768,12.969 25.0158,12.469 C25.2068,11.105 26.5738,10.454 27.3958,10.001" id="Fill-7" fill="#F7DBC6"></path>
                            <path d="M27.0315,7.4131 C27.6645,8.3781 26.8295,10.4801 25.5185,10.3711 C25.3125,9.0541 26.3965,8.0651 27.0315,7.4131" id="Fill-9" fill="#F7DBC6"></path>
                            <path d="M26.0574,4.9941 C26.8744,5.7101 26.6444,7.8271 25.4294,8.0571 C24.9104,6.9151 25.6454,5.7461 26.0574,4.9941" id="Fill-11" fill="#F7DBC6"></path>
                            <path d="M21.8831,6.374 C21.8561,7.459 23.5691,8.726 24.5621,7.987 C24.0731,6.831 22.7151,6.579 21.8831,6.374" id="Fill-13" fill="#F7DBC6"></path>
                            <path d="M22.1897,8.0264 C21.9377,9.0824 23.3507,10.6764 24.4757,10.1614 C24.2367,8.9284 22.9607,8.4004 22.1897,8.0264" id="Fill-15" fill="#F7DBC6"></path>
                            <path d="M21.9148,9.4853 C21.4908,10.4843 22.6178,12.2923 23.8128,11.9703 C23.7828,10.7153 22.6128,9.9823 21.9148,9.4853" id="Fill-17" fill="#F7DBC6"></path>
                            <path d="M21.5672,11.0644 C20.9572,11.9614 21.7122,13.9534 22.9462,13.8714 C23.1602,12.6334 22.1552,11.6874 21.5672,11.0644" id="Fill-19" fill="#F7DBC6"></path>
                            <path d="M20.656,11.9736 C19.817,12.8416 20.267,15.1666 21.636,15.3096 C22.105,13.9946 21.182,12.7676 20.656,11.9736" id="Fill-21" fill="#F7DBC6"></path>
                            <path d="M19.5227,12.8516 C18.5977,13.6266 18.8017,15.9876 20.1477,16.2726 C20.7517,15.0136 19.9627,13.6966 19.5227,12.8516" id="Fill-23" fill="#F7DBC6"></path>
                            <path d="M22.8919,4.2041 C24.0299,4.1171 25.4499,5.8471 24.7279,6.9291 C23.4899,6.4761 23.1529,5.0651 22.8919,4.2041" id="Fill-25" fill="#F7DBC6"></path>
                            <path d="M17.096,17.6719 C23.027,16.9229 25.659,12.3459 25.121,8.0969 L24.857,8.1299 C25.383,12.2809 22.749,16.5149 17.041,17.2379 L17.096,17.6719 Z" id="Fill-27" fill="#F7DBC6"></path>
                            <path d="M3.2717,17.5762 C4.0347,18.5642 6.4797,18.4522 6.8317,17.0732 C5.5577,16.3972 4.1627,17.1572 3.2717,17.5762" id="Fill-29" fill="#F7DBC6"></path>
                            <path d="M1.532,15.457 C1.983,16.621 4.359,17.208 5.088,15.986 C4.058,14.976 2.506,15.309 1.532,15.457" id="Fill-31" fill="#F7DBC6"></path>
                            <path d="M0.8196,12.7178 C0.7316,13.9628 2.6316,15.5068 3.8116,14.7108 C3.3106,13.3588 1.7646,12.9978 0.8196,12.7178" id="Fill-33" fill="#F7DBC6"></path>
                            <path d="M0.0491,10.001 C-0.2869,11.143 1.1681,12.969 2.4291,12.469 C2.2381,11.105 0.8721,10.454 0.0491,10.001" id="Fill-35" fill="#F7DBC6"></path>
                            <path d="M0.4133,7.4131 C-0.2197,8.3781 0.6163,10.4801 1.9263,10.3711 C2.1323,9.0541 1.0483,8.0651 0.4133,7.4131" id="Fill-37" fill="#F7DBC6"></path>
                            <path d="M1.3875,4.9941 C0.5705,5.7101 0.8005,7.8271 2.0155,8.0571 C2.5345,6.9151 1.7995,5.7461 1.3875,4.9941" id="Fill-39" fill="#F7DBC6"></path>
                            <path d="M5.5618,6.374 C5.5888,7.459 3.8758,8.726 2.8828,7.987 C3.3718,6.831 4.7298,6.579 5.5618,6.374" id="Fill-41" fill="#F7DBC6"></path>
                            <path d="M5.2551,8.0264 C5.5071,9.0824 4.0941,10.6764 2.9691,10.1614 C3.2081,8.9284 4.4841,8.4004 5.2551,8.0264" id="Fill-43" fill="#F7DBC6"></path>
                            <path d="M5.53,9.4853 C5.955,10.4843 4.828,12.2923 3.633,11.9703 C3.662,10.7153 4.832,9.9823 5.53,9.4853" id="Fill-45" fill="#F7DBC6"></path>
                            <path d="M5.8777,11.0644 C6.4877,11.9614 5.7337,13.9534 4.4987,13.8714 C4.2847,12.6334 5.2897,11.6874 5.8777,11.0644" id="Fill-47" fill="#F7DBC6"></path>
                            <path d="M6.7893,11.9736 C7.6283,12.8416 7.1783,15.1666 5.8093,15.3096 C5.3403,13.9946 6.2633,12.7676 6.7893,11.9736" id="Fill-49" fill="#F7DBC6"></path>
                            <path d="M7.9221,12.8516 C8.8471,13.6266 8.6431,15.9876 7.2971,16.2726 C6.6931,15.0136 7.4821,13.6966 7.9221,12.8516" id="Fill-51" fill="#F7DBC6"></path>
                            <path d="M4.553,4.2041 C3.415,4.1171 1.995,5.8471 2.717,6.9291 C3.955,6.4761 4.292,5.0651 4.553,4.2041" id="Fill-53" fill="#F7DBC6"></path>
                            <path d="M10.3489,17.6719 C4.4179,16.9229 1.7859,12.3459 2.3239,8.0969 L2.5879,8.1299 C2.0619,12.2809 4.6959,16.5149 10.4039,17.2379 L10.3489,17.6719 Z" id="Fill-55" fill="#F7DBC6"></path>
                            <mask id="mask-2" fill="white">
                                <use xlink:href="#path-1"></use>
                            </mask>
                            <g id="Clip-58"></g>
                            <polygon id="Fill-57" fill="#3E7C3C" mask="url(#mask-2)" points="9.166 19.0374 18.314 19.0374 18.314 16.2964 9.166 16.2964"></polygon>
                            <polygon id="Fill-59" fill="#346933" mask="url(#mask-2)" points="19.4299 20.6465 8.0489 20.6465 8.3759 19.0375 19.1029 19.0375"></polygon>
                            <polygon id="Fill-60" fill="#29602F" mask="url(#mask-2)" points="9.166 19.0374 18.314 19.0374 18.314 18.1964 9.166 18.1964"></polygon>
                            <path d="M19.8655,5.0205 C19.8655,6.9015 18.9255,8.2805 17.0445,9.1585 C19.3975,9.9615 20.5735,11.4495 20.5735,13.6195 C20.5735,14.7385 20.2735,15.7305 19.6725,16.5955 C19.0725,17.4615 18.2375,18.1305 17.1685,18.6025 C16.0995,19.0755 14.8945,19.3105 13.5525,19.3105 C9.0705,19.3105 6.6685,17.2685 6.3445,13.1845 L10.4215,12.8495 C10.4375,15.0365 11.3365,16.1295 13.1175,16.1295 C13.9375,16.1295 14.6045,15.8735 15.1185,15.3595 C15.6325,14.8455 15.8885,14.2115 15.8885,13.4585 C15.8885,12.6795 15.6175,12.0475 15.0745,11.5635 C14.5325,11.0785 13.7635,10.8355 12.7695,10.8355 C12.6125,10.8355 12.2645,10.8565 11.7255,10.8985 L11.7255,7.4805 C12.8775,7.4645 13.7765,7.2615 14.4225,6.8725 C15.0685,6.4825 15.3915,5.9235 15.3915,5.1945 C15.3915,4.6145 15.1745,4.1425 14.7395,3.7775 C14.3045,3.4135 13.7555,3.2305 13.0935,3.2305 C11.6015,3.2305 10.8565,4.0635 10.8565,5.7285 L6.9165,5.3935 C7.0495,3.6955 7.6875,2.3715 8.8305,1.4225 C9.9735,0.4745 11.4815,-0.0005 13.3535,-0.0005 C15.3335,-0.0005 16.9135,0.4495 18.0945,1.3485 C19.2755,2.2475 19.8655,3.4715 19.8655,5.0205" id="Fill-61" fill="#F7B481" mask="url(#mask-2)"></path>
                        </g>
                    </g>
                </g>
            </g>
        </g>
    </g>
</svg>