<svg xmlns="http://www.w3.org/2000/svg" xmlns:xlink="http://www.w3.org/1999/xlink" viewBox="0 0 100 116"><defs><style>.cls-1{isolation:isolate;}.cls-2{fill:url(#linear-gradient);}.cls-3{fill:#f2e6d7;opacity:0.5;}.cls-10,.cls-12,.cls-13,.cls-14,.cls-15,.cls-17,.cls-18,.cls-19,.cls-20,.cls-3,.cls-6,.cls-7,.cls-8,.cls-9{mix-blend-mode:multiply;}.cls-4{fill:url(#linear-gradient-2);}.cls-5{fill:url(#linear-gradient-3);}.cls-7{fill:url(#linear-gradient-4);}.cls-8{fill:url(#linear-gradient-5);}.cls-9{fill:url(#linear-gradient-6);}.cls-10{fill:url(#linear-gradient-7);}.cls-11{fill:url(#linear-gradient-8);}.cls-12{fill:url(#linear-gradient-9);}.cls-13{fill:url(#linear-gradient-10);}.cls-14{fill:url(#linear-gradient-11);}.cls-15{fill:url(#linear-gradient-12);}.cls-16{fill:url(#linear-gradient-13);}.cls-17{fill:url(#linear-gradient-14);}.cls-18{fill:url(#linear-gradient-15);}.cls-19{fill:url(#linear-gradient-16);}.cls-20{fill:url(#linear-gradient-17);}</style><linearGradient id="linear-gradient" x1="50" y1="92.94" x2="50" y2="1.19" gradientUnits="userSpaceOnUse"><stop offset="0.18" stop-color="#c9681f"/><stop offset="0.25" stop-color="#e18448"/><stop offset="0.34" stop-color="#e79562"/><stop offset="0.43" stop-color="#e5a371"/><stop offset="0.52" stop-color="#efd7a8"/><stop offset="0.6" stop-color="#e5a371"/><stop offset="0.69" stop-color="#e79562"/><stop offset="0.77" stop-color="#e18449"/><stop offset="1" stop-color="#c9681f"/></linearGradient><linearGradient id="linear-gradient-2" x1="8.21" y1="47.06" x2="91.79" y2="47.06" xlink:href="#linear-gradient"/><linearGradient id="linear-gradient-3" x1="65.52" y1="100.2" x2="84.67" y2="100.2" xlink:href="#linear-gradient"/><linearGradient id="linear-gradient-4" x1="69.18" y1="105.15" x2="81.01" y2="105.15" gradientUnits="userSpaceOnUse"><stop offset="0" stop-color="#c9681f"/><stop offset="0.64" stop-color="#eed5a7"/><stop offset="1" stop-color="#df8053"/></linearGradient><linearGradient id="linear-gradient-5" x1="65.52" y1="100.39" x2="75.09" y2="100.39" xlink:href="#linear-gradient-4"/><linearGradient id="linear-gradient-6" x1="75.09" y1="96.18" x2="78.05" y2="96.18" xlink:href="#linear-gradient-4"/><linearGradient id="linear-gradient-7" x1="75.09" y1="100.39" x2="84.67" y2="100.39" xlink:href="#linear-gradient-4"/><linearGradient id="linear-gradient-8" x1="15.99" y1="100.2" x2="35.14" y2="100.2" xlink:href="#linear-gradient"/><linearGradient id="linear-gradient-9" x1="19.65" y1="105.15" x2="31.48" y2="105.15" xlink:href="#linear-gradient-4"/><linearGradient id="linear-gradient-10" x1="15.99" y1="100.39" x2="25.57" y2="100.39" xlink:href="#linear-gradient-4"/><linearGradient id="linear-gradient-11" x1="25.57" y1="96.18" x2="28.53" y2="96.18" xlink:href="#linear-gradient-4"/><linearGradient id="linear-gradient-12" x1="25.57" y1="100.39" x2="35.14" y2="100.39" xlink:href="#linear-gradient-4"/><linearGradient id="linear-gradient-13" x1="39.43" y1="104.14" x2="61.23" y2="104.14" xlink:href="#linear-gradient"/><linearGradient id="linear-gradient-14" x1="43.6" y1="109.77" x2="57.06" y2="109.77" xlink:href="#linear-gradient-4"/><linearGradient id="linear-gradient-15" x1="39.43" y1="104.35" x2="50.33" y2="104.35" xlink:href="#linear-gradient-4"/><linearGradient id="linear-gradient-16" x1="50.33" y1="99.56" x2="53.7" y2="99.56" xlink:href="#linear-gradient-4"/><linearGradient id="linear-gradient-17" x1="50.33" y1="104.35" x2="61.23" y2="104.35" xlink:href="#linear-gradient-4"/></defs><title>User</title><g class="cls-1"><g id="Layer_1" data-name="Layer 1"><path class="cls-2" d="M50,1.5A45.57,45.57,0,1,0,95.36,47.06,45.46,45.46,0,0,0,50,1.5Zm0,86.89A41.33,41.33,0,1,1,91.13,47.06,41.28,41.28,0,0,1,50,88.39Z"/><path class="cls-3" d="M50,2.2A44.87,44.87,0,1,0,94.66,47.06,44.81,44.81,0,0,0,50,2.2Zm0,86.19A41.33,41.33,0,1,1,91.13,47.06,41.28,41.28,0,0,1,50,88.39Z"/><path class="cls-4" d="M50,5.09a42,42,0,1,0,41.79,42A41.93,41.93,0,0,0,50,5.09Zm0,79.65A37.68,37.68,0,1,1,87.5,47.06,37.63,37.63,0,0,1,50,84.74Z"/><polygon class="cls-5" points="75.09 91.09 78.05 97.09 84.67 98.05 79.88 102.72 81.01 109.31 75.09 106.2 69.18 109.31 70.31 102.72 65.52 98.05 72.14 97.09 75.09 91.09"/><g class="cls-6"><polygon class="cls-7" points="69.18 109.31 75.09 101 81.01 109.31 75.09 106.2 69.18 109.31"/><polygon class="cls-8" points="75.09 101 70.31 102.72 65.52 98.05 75.09 101"/><polygon class="cls-9" points="75.09 91.36 75.09 101 78.05 97.09 75.09 91.36"/><polygon class="cls-10" points="84.67 98.05 75.09 101 79.88 102.72 84.67 98.05"/></g><polygon class="cls-11" points="25.57 91.09 28.53 97.09 35.14 98.05 30.35 102.72 31.48 109.31 25.57 106.2 19.65 109.31 20.78 102.72 15.99 98.05 22.61 97.09 25.57 91.09"/><g class="cls-6"><polygon class="cls-12" points="19.65 109.31 25.57 101 31.48 109.31 25.57 106.2 19.65 109.31"/><polygon class="cls-13" points="25.57 101 20.78 102.72 15.99 98.05 25.57 101"/><polygon class="cls-14" points="25.57 91.36 25.57 101 28.53 97.09 25.57 91.36"/><polygon class="cls-15" points="35.14 98.05 25.57 101 30.35 102.72 35.14 98.05"/></g><polygon class="cls-16" points="50.33 93.78 53.7 100.6 61.23 101.69 55.78 107 57.06 114.5 50.33 110.96 43.6 114.5 44.88 107 39.43 101.69 46.96 100.6 50.33 93.78"/><g class="cls-6"><polygon class="cls-17" points="43.6 114.5 50.33 105.04 57.06 114.5 50.33 110.96 43.6 114.5"/><polygon class="cls-18" points="50.33 105.04 44.88 107 39.43 101.69 50.33 105.04"/><polygon class="cls-19" points="50.33 94.07 50.33 105.04 53.7 100.6 50.33 94.07"/><polygon class="cls-20" points="61.23 101.69 50.33 105.04 55.78 107 61.23 101.69"/></g></g></g></svg>