<svg xmlns="http://www.w3.org/2000/svg" xmlns:xlink="http://www.w3.org/1999/xlink" viewBox="0 0 100 116"><defs><style>.cls-1{isolation:isolate;}.cls-2{fill:url(#linear-gradient);}.cls-3{fill:#f2e6d7;opacity:0.5;}.cls-10,.cls-12,.cls-13,.cls-14,.cls-15,.cls-3,.cls-6,.cls-7,.cls-8,.cls-9{mix-blend-mode:multiply;}.cls-4{fill:url(#linear-gradient-2);}.cls-5{fill:url(#linear-gradient-3);}.cls-7{fill:url(#linear-gradient-4);}.cls-8{fill:url(#linear-gradient-5);}.cls-9{fill:url(#linear-gradient-6);}.cls-10{fill:url(#linear-gradient-7);}.cls-11{fill:url(#linear-gradient-8);}.cls-12{fill:url(#linear-gradient-9);}.cls-13{fill:url(#linear-gradient-10);}.cls-14{fill:url(#linear-gradient-11);}.cls-15{fill:url(#linear-gradient-12);}</style><linearGradient id="linear-gradient" x1="50" y1="92.94" x2="50" y2="1.19" gradientUnits="userSpaceOnUse"><stop offset="0.18" stop-color="#c9681f"/><stop offset="0.25" stop-color="#e18448"/><stop offset="0.34" stop-color="#e79562"/><stop offset="0.43" stop-color="#e5a371"/><stop offset="0.52" stop-color="#efd7a8"/><stop offset="0.6" stop-color="#e5a371"/><stop offset="0.69" stop-color="#e79562"/><stop offset="0.77" stop-color="#e18449"/><stop offset="1" stop-color="#c9681f"/></linearGradient><linearGradient id="linear-gradient-2" x1="8.21" y1="47.06" x2="91.79" y2="47.06" xlink:href="#linear-gradient"/><linearGradient id="linear-gradient-3" x1="28.33" y1="104.14" x2="48.33" y2="104.14" xlink:href="#linear-gradient"/><linearGradient id="linear-gradient-4" x1="32.15" y1="109.31" x2="44.51" y2="109.31" gradientUnits="userSpaceOnUse"><stop offset="0" stop-color="#c9681f"/><stop offset="0.64" stop-color="#eed5a7"/><stop offset="1" stop-color="#df8053"/></linearGradient><linearGradient id="linear-gradient-5" x1="28.33" y1="104.33" x2="38.33" y2="104.33" xlink:href="#linear-gradient-4"/><linearGradient id="linear-gradient-6" x1="38.33" y1="99.93" x2="41.42" y2="99.93" xlink:href="#linear-gradient-4"/><linearGradient id="linear-gradient-7" x1="38.33" y1="104.33" x2="48.33" y2="104.33" xlink:href="#linear-gradient-4"/><linearGradient id="linear-gradient-8" x1="52.33" y1="104.2" x2="72.33" y2="104.2" xlink:href="#linear-gradient"/><linearGradient id="linear-gradient-9" x1="56.15" y1="109.37" x2="68.51" y2="109.37" xlink:href="#linear-gradient-4"/><linearGradient id="linear-gradient-10" x1="52.33" y1="104.39" x2="62.33" y2="104.39" xlink:href="#linear-gradient-4"/><linearGradient id="linear-gradient-11" x1="62.33" y1="100" x2="65.42" y2="100" xlink:href="#linear-gradient-4"/><linearGradient id="linear-gradient-12" x1="62.33" y1="104.39" x2="72.33" y2="104.39" xlink:href="#linear-gradient-4"/></defs><title>User</title><g class="cls-1"><g id="Layer_1" data-name="Layer 1"><path class="cls-2" d="M50,1.5A45.57,45.57,0,1,0,95.36,47.06,45.46,45.46,0,0,0,50,1.5Zm0,86.89A41.33,41.33,0,1,1,91.13,47.06,41.28,41.28,0,0,1,50,88.39Z"/><path class="cls-3" d="M50,2.2A44.87,44.87,0,1,0,94.66,47.06,44.81,44.81,0,0,0,50,2.2Zm0,86.19A41.33,41.33,0,1,1,91.13,47.06,41.28,41.28,0,0,1,50,88.39Z"/><path class="cls-4" d="M50,5.09a42,42,0,1,0,41.79,42A41.93,41.93,0,0,0,50,5.09Zm0,79.65A37.68,37.68,0,1,1,87.5,47.06,37.63,37.63,0,0,1,50,84.74Z"/><polygon class="cls-5" points="38.33 94.63 41.42 100.89 48.33 101.89 43.33 106.77 44.51 113.65 38.33 110.4 32.15 113.65 33.33 106.77 28.33 101.89 35.24 100.89 38.33 94.63"/><g class="cls-6"><polygon class="cls-7" points="32.15 113.65 38.33 104.97 44.51 113.65 38.33 110.4 32.15 113.65"/><polygon class="cls-8" points="38.33 104.97 33.33 106.77 28.33 101.89 38.33 104.97"/><polygon class="cls-9" points="38.33 94.9 38.33 104.97 41.42 100.89 38.33 94.9"/><polygon class="cls-10" points="48.33 101.89 38.33 104.97 43.33 106.77 48.33 101.89"/></g><polygon class="cls-11" points="62.33 94.69 65.42 100.95 72.33 101.96 67.33 106.83 68.51 113.71 62.33 110.46 56.15 113.71 57.33 106.83 52.33 101.96 59.24 100.95 62.33 94.69"/><g class="cls-6"><polygon class="cls-12" points="56.15 113.71 62.33 105.03 68.51 113.71 62.33 110.46 56.15 113.71"/><polygon class="cls-13" points="62.33 105.03 57.33 106.83 52.33 101.96 62.33 105.03"/><polygon class="cls-14" points="62.33 94.96 62.33 105.03 65.42 100.95 62.33 94.96"/><polygon class="cls-15" points="72.33 101.96 62.33 105.03 67.33 106.83 72.33 101.96"/></g></g></g></svg>