<?xml version="1.0" encoding="UTF-8"?>
<svg width="27px" height="21px" viewBox="0 0 27 21" version="1.1" xmlns="http://www.w3.org/2000/svg" xmlns:xlink="http://www.w3.org/1999/xlink">
    <!-- Generator: Sketch 53.1 (72631) - https://sketchapp.com -->
    <title>2nd</title>
    <desc>Created with Sketch.</desc>
    <defs>
        <polygon id="path-1" points="0.0161 0.3546 2.445 0.3546 2.445 2.90740262 0.0161 2.90740262"></polygon>
        <polygon id="path-3" points="0 0.3546 2.4289 0.3546 2.4289 2.90740262 0 2.90740262"></polygon>
    </defs>
    <g id="Page-1" stroke="none" stroke-width="1" fill="none" fill-rule="evenodd">
        <g id="Contest-List_v2" transform="translate(-745.000000, -634.000000)">
            <g id="01" transform="translate(390.000000, 510.000000)">
                <g id="avt-" transform="translate(119.000000, 96.000000)">
                    <g id="02" transform="translate(183.000000, 1.000000)">
                        <g id="2nd" transform="translate(53.000000, 27.000000)">
                            <path d="M23.1734,17.5762 C22.4104,18.5642 19.9654,18.4522 19.6134,17.0732 C20.8874,16.3972 22.2814,17.1572 23.1734,17.5762" id="Fill-1" fill="#D7D7D7"></path>
                            <path d="M24.9132,15.457 C24.4622,16.621 22.0852,17.208 21.3572,15.986 C22.3872,14.976 23.9392,15.309 24.9132,15.457" id="Fill-3" fill="#D7D7D7"></path>
                            <path d="M25.6251,12.7178 C25.7131,13.9628 23.8131,15.5068 22.6331,14.7108 C23.1351,13.3588 24.6811,12.9978 25.6251,12.7178" id="Fill-5" fill="#D7D7D7"></path>
                            <g id="Group-9" transform="translate(24.000000, 9.646400)">
                                <mask id="mask-2" fill="white">
                                    <use xlink:href="#path-1"></use>
                                </mask>
                                <g id="Clip-8"></g>
                                <path d="M2.3961,0.3546 C2.7321,1.4966 1.2771,3.3226 0.0161,2.8226 C0.2071,1.4586 1.5731,0.8076 2.3961,0.3546" id="Fill-7" fill="#D7D7D7" mask="url(#mask-2)"></path>
                            </g>
                            <path d="M26.0313,7.4131 C26.6643,8.3781 25.8293,10.4801 24.5183,10.3711 C24.3123,9.0541 25.3963,8.0651 26.0313,7.4131" id="Fill-10" fill="#D7D7D7"></path>
                            <path d="M25.0577,4.9941 C25.8747,5.7101 25.6447,7.8271 24.4287,8.0571 C23.9107,6.9151 24.6457,5.7461 25.0577,4.9941" id="Fill-12" fill="#D7D7D7"></path>
                            <path d="M20.8834,6.374 C20.8564,7.459 22.5694,8.726 23.5624,7.987 C23.0724,6.831 21.7154,6.579 20.8834,6.374" id="Fill-14" fill="#D7D7D7"></path>
                            <path d="M21.1895,8.0264 C20.9385,9.0824 22.3505,10.6764 23.4755,10.1614 C23.2365,8.9284 21.9605,8.4004 21.1895,8.0264" id="Fill-16" fill="#D7D7D7"></path>
                            <path d="M20.9146,9.4853 C20.4906,10.4843 21.6176,12.2923 22.8126,11.9703 C22.7826,10.7153 21.6126,9.9823 20.9146,9.4853" id="Fill-18" fill="#D7D7D7"></path>
                            <path d="M20.567,11.0644 C19.957,11.9614 20.712,13.9534 21.946,13.8714 C22.161,12.6334 21.155,11.6874 20.567,11.0644" id="Fill-20" fill="#D7D7D7"></path>
                            <path d="M19.6559,11.9736 C18.8169,12.8416 19.2669,15.1666 20.6359,15.3096 C21.1049,13.9946 20.1819,12.7676 19.6559,11.9736" id="Fill-22" fill="#D7D7D7"></path>
                            <path d="M18.523,12.8516 C17.598,13.6266 17.802,15.9876 19.148,16.2726 C19.752,15.0136 18.963,13.6966 18.523,12.8516" id="Fill-24" fill="#D7D7D7"></path>
                            <path d="M21.8922,4.2041 C23.0302,4.1171 24.4502,5.8471 23.7282,6.9291 C22.4892,6.4761 22.1522,5.0651 21.8922,4.2041" id="Fill-26" fill="#D7D7D7"></path>
                            <path d="M16.0958,17.6719 C22.0268,16.9229 24.6588,12.3459 24.1208,8.0969 L23.8568,8.1299 C24.3828,12.2809 21.7488,16.5149 16.0408,17.2379 L16.0958,17.6719 Z" id="Fill-28" fill="#D7D7D7"></path>
                            <path d="M3.2721,17.5762 C4.0341,18.5642 6.4801,18.4522 6.8311,17.0732 C5.5571,16.3972 4.1631,17.1572 3.2721,17.5762" id="Fill-30" fill="#D7D7D7"></path>
                            <path d="M1.5318,15.457 C1.9828,16.621 4.3598,17.208 5.0878,15.986 C4.0578,14.976 2.5058,15.309 1.5318,15.457" id="Fill-32" fill="#D7D7D7"></path>
                            <path d="M0.8199,12.7178 C0.7319,13.9628 2.6319,15.5068 3.8119,14.7108 C3.3099,13.3588 1.7639,12.9978 0.8199,12.7178" id="Fill-34" fill="#D7D7D7"></path>
                            <g id="Group-38" transform="translate(0.000000, 9.646400)">
                                <mask id="mask-4" fill="white">
                                    <use xlink:href="#path-3"></use>
                                </mask>
                                <g id="Clip-37"></g>
                                <path d="M0.0489,0.3546 C-0.2871,1.4966 1.1679,3.3226 2.4289,2.8226 C2.2379,1.4586 0.8719,0.8076 0.0489,0.3546" id="Fill-36" fill="#D7D7D7" mask="url(#mask-4)"></path>
                            </g>
                            <path d="M0.4137,7.4131 C-0.2193,8.3781 0.6157,10.4801 1.9267,10.3711 C2.1327,9.0541 1.0487,8.0651 0.4137,7.4131" id="Fill-39" fill="#D7D7D7"></path>
                            <path d="M1.3873,4.9941 C0.5703,5.7101 0.8003,7.8271 2.0163,8.0571 C2.5343,6.9151 1.8003,5.7461 1.3873,4.9941" id="Fill-41" fill="#D7D7D7"></path>
                            <path d="M5.5621,6.374 C5.5891,7.459 3.8761,8.726 2.8831,7.987 C3.3721,6.831 4.7301,6.579 5.5621,6.374" id="Fill-43" fill="#D7D7D7"></path>
                            <path d="M5.2555,8.0264 C5.5075,9.0824 4.0945,10.6764 2.9695,10.1614 C3.2085,8.9284 4.4845,8.4004 5.2555,8.0264" id="Fill-45" fill="#D7D7D7"></path>
                            <path d="M5.5304,9.4853 C5.9544,10.4843 4.8274,12.2923 3.6324,11.9703 C3.6624,10.7153 4.8324,9.9823 5.5304,9.4853" id="Fill-47" fill="#D7D7D7"></path>
                            <path d="M5.878,11.0644 C6.488,11.9614 5.733,13.9534 4.499,13.8714 C4.284,12.6334 5.29,11.6874 5.878,11.0644" id="Fill-49" fill="#D7D7D7"></path>
                            <path d="M6.7892,11.9736 C7.6282,12.8416 7.1782,15.1666 5.8092,15.3096 C5.3402,13.9946 6.2632,12.7676 6.7892,11.9736" id="Fill-51" fill="#D7D7D7"></path>
                            <path d="M7.922,12.8516 C8.847,13.6266 8.643,15.9876 7.297,16.2726 C6.693,15.0136 7.482,13.6966 7.922,12.8516" id="Fill-53" fill="#D7D7D7"></path>
                            <path d="M4.5528,4.2041 C3.4148,4.1171 1.9948,5.8471 2.7168,6.9291 C3.9558,6.4761 4.2928,5.0651 4.5528,4.2041" id="Fill-55" fill="#D7D7D7"></path>
                            <path d="M10.3492,17.6719 C4.4182,16.9229 1.7862,12.3459 2.3242,8.0969 L2.5882,8.1299 C2.0622,12.2809 4.6962,16.5149 10.4042,17.2379 L10.3492,17.6719 Z" id="Fill-57" fill="#D7D7D7"></path>
                            <polygon id="Fill-59" fill="#00ADEE" points="7.7398 19.0374 17.7398 19.0374 17.7398 16.2964 7.7398 16.2964"></polygon>
                            <polygon id="Fill-61" fill="#00AFD7" points="19.7398 20.6465 5.7398 20.6465 6.14085448 19.0375 19.3375153 19.0375"></polygon>
                            <polygon id="Fill-62" fill="#0D8DB4" points="7.7398 19.0374 17.7398 19.0374 17.7398 18.1964 7.7398 18.1964"></polygon>
                            <path d="M19.3897,5.269 C19.3897,6.222 19.1767,7.05 18.7497,7.754 C18.3237,8.458 17.7497,9.099 17.0287,9.674 C16.3077,10.25 15.2597,10.953 13.8847,11.781 C11.6477,13.157 10.4097,14.515 10.1697,15.857 L15.8237,15.857 L15.8237,13.434 L19.6137,13.434 L19.3897,19.063 L5.7447,19.063 C5.7447,17.398 5.9447,16.027 6.3417,14.95 C6.7397,13.873 7.3677,12.885 8.2247,11.986 C9.0817,11.087 10.3437,10.021 12.0087,8.787 C12.8867,8.14 13.5557,7.514 14.0147,6.91 C14.4747,6.305 14.7047,5.684 14.7047,5.045 C14.7047,4.416 14.5227,3.94 14.1587,3.617 C13.7937,3.293 13.2717,3.132 12.5927,3.132 C11.7147,3.132 11.0617,3.436 10.6357,4.045 C10.2087,4.654 9.9537,5.646 9.8707,7.022 L5.9817,6.873 C6.0317,4.561 6.6237,2.838 7.7587,1.703 C8.8937,0.568 10.5917,0 12.8537,0 C14.8827,0 16.4797,0.466 17.6437,1.399 C18.8077,2.331 19.3897,3.621 19.3897,5.269" id="Fill-63" fill="#C5C5C3"></path>
                        </g>
                    </g>
                </g>
            </g>
        </g>
    </g>
</svg>